<svg xmlns="http://www.w3.org/2000/svg" viewBox="0 0 800 600" fill="none">
  <defs>
    <radialGradient id="g" cx="0" cy="0" r="1" gradientUnits="userSpaceOnUse" gradientTransform="translate(0 0) scale(1)">
      <stop stop-color="white" />
      <stop offset="1" stop-color="white" stop-opacity="0"/>
    </radialGradient>
  </defs>
  <rect width="800" height="600" fill="transparent"/>
  <!-- simple stars -->
  <g opacity="0.8">
    <circle cx="654" cy="114" r="0.5325139817894671" fill="white" />
    <circle cx="281" cy="250" r="0.7901739595934696" fill="white" />
    <circle cx="754" cy="104" r="1.3797093336497848" fill="white" />
    <circle cx="558" cy="89" r="1.2676402661837516" fill="white" />
    <circle cx="32" cy="30" r="0.6218038118200702" fill="white" />
    <circle cx="238" cy="517" r="1.2826243477649744" fill="white" />
    <circle cx="574" cy="203" r="1.4308254967991245" fill="white" />
    <circle cx="718" cy="558" r="1.0453757672501562" fill="white" />
    <circle cx="459" cy="284" r="1.5522595936811747" fill="white" />
    <circle cx="6" cy="163" r="1.4075812134846948" fill="white" />
    <circle cx="348" cy="284" r="0.702123349755316" fill="white" />
    <circle cx="781" cy="344" r="0.6328733594758034" fill="white" />
    <circle cx="389" cy="99" r="0.9666731946300169" fill="white" />
    <circle cx="352" cy="270" r="1.5492667552566943" fill="white" />
    <circle cx="747" cy="470" r="1.1970965188911111" fill="white" />
    <circle cx="387" cy="80" r="1.217652820655195" fill="white" />
    <circle cx="643" cy="370" r="1.2505577888337907" fill="white" />
    <circle cx="721" cy="71" r="0.5595716987523609" fill="white" />
    <circle cx="233" cy="296" r="1.7807879768589852" fill="white" />
    <circle cx="238" cy="103" r="0.9941640925509161" fill="white" />
    <circle cx="464" cy="373" r="0.7114503263029103" fill="white" />
    <circle cx="363" cy="214" r="1.3712277266910013" fill="white" />
    <circle cx="718" cy="73" r="1.2918703073670845" fill="white" />
    <circle cx="175" cy="546" r="1.447864837335454" fill="white" />
    <circle cx="167" cy="473" r="0.9932920742849422" fill="white" />
    <circle cx="655" cy="570" r="0.7854997261613497" fill="white" />
    <circle cx="332" cy="57" r="0.7977624935533356" fill="white" />
    <circle cx="32" cy="323" r="1.0215142231290275" fill="white" />
    <circle cx="67" cy="216" r="1.6870769614412087" fill="white" />
    <circle cx="580" cy="322" r="0.7764145072703827" fill="white" />
    <circle cx="511" cy="405" r="1.6500881000527132" fill="white" />
    <circle cx="658" cy="469" r="0.6857330675746814" fill="white" />
    <circle cx="142" cy="252" r="1.4684856767190886" fill="white" />
    <circle cx="551" cy="269" r="1.4711179551479354" fill="white" />
    <circle cx="438" cy="597" r="1.0192206566825166" fill="white" />
    <circle cx="224" cy="141" r="1.1623841817794038" fill="white" />
    <circle cx="93" cy="48" r="1.6194337825666656" fill="white" />
    <circle cx="156" cy="163" r="1.5297031736718534" fill="white" />
    <circle cx="432" cy="65" r="1.0001975051768501" fill="white" />
    <circle cx="610" cy="479" r="1.1878486486288782" fill="white" />
    <circle cx="566" cy="11" r="1.384368433333474" fill="white" />
    <circle cx="117" cy="549" r="1.4761411394690926" fill="white" />
    <circle cx="787" cy="348" r="0.6450178256746394" fill="white" />
    <circle cx="445" cy="161" r="1.0898408182279684" fill="white" />
    <circle cx="739" cy="269" r="1.7634545285311487" fill="white" />
    <circle cx="780" cy="182" r="1.1599861769856228" fill="white" />
    <circle cx="108" cy="305" r="1.5941701526242071" fill="white" />
    <circle cx="519" cy="203" r="0.6986910491145253" fill="white" />
    <circle cx="780" cy="165" r="1.2011927391555135" fill="white" />
    <circle cx="797" cy="543" r="1.694041542714413" fill="white" />
    <circle cx="613" cy="331" r="1.1351874204376322" fill="white" />
    <circle cx="114" cy="371" r="1.6423384411701396" fill="white" />
    <circle cx="314" cy="245" r="0.5753027164424438" fill="white" />
    <circle cx="580" cy="80" r="0.6113494876882424" fill="white" />
    <circle cx="497" cy="70" r="1.7713798417805344" fill="white" />
    <circle cx="545" cy="128" r="0.6669089038496916" fill="white" />
    <circle cx="486" cy="562" r="0.714665046666366" fill="white" />
    <circle cx="540" cy="433" r="1.7536717778096917" fill="white" />
    <circle cx="552" cy="205" r="1.4268336646648585" fill="white" />
    <circle cx="408" cy="382" r="1.0695301090888552" fill="white" />
    <circle cx="529" cy="462" r="0.6573054546287455" fill="white" />
    <circle cx="230" cy="65" r="0.939511230791692" fill="white" />
    <circle cx="602" cy="567" r="0.7991491523755501" fill="white" />
    <circle cx="225" cy="7" r="0.5922910118117423" fill="white" />
    <circle cx="646" cy="60" r="0.7976243189545007" fill="white" />
    <circle cx="32" cy="338" r="0.5921145548552494" fill="white" />
    <circle cx="243" cy="285" r="1.3696711117851648" fill="white" />
    <circle cx="219" cy="552" r="0.6720054033425324" fill="white" />
    <circle cx="584" cy="590" r="1.1144723342053324" fill="white" />
    <circle cx="484" cy="416" r="0.7475328886704411" fill="white" />
    <circle cx="99" cy="441" r="0.96058683656642" fill="white" />
    <circle cx="420" cy="478" r="1.6229877728804842" fill="white" />
    <circle cx="55" cy="100" r="0.5787964763001178" fill="white" />
    <circle cx="745" cy="347" r="1.5407702641202086" fill="white" />
    <circle cx="111" cy="254" r="0.7490670937841503" fill="white" />
    <circle cx="549" cy="459" r="0.6822369862232068" fill="white" />
    <circle cx="187" cy="285" r="1.1014164889212577" fill="white" />
    <circle cx="77" cy="453" r="1.5504289181512134" fill="white" />
    <circle cx="563" cy="100" r="0.5657648283823457" fill="white" />
    <circle cx="553" cy="15" r="1.7596951344701766" fill="white" />
    <circle cx="771" cy="242" r="0.7162044437850882" fill="white" />
    <circle cx="497" cy="492" r="0.7778714889589362" fill="white" />
    <circle cx="410" cy="60" r="0.714028257821985" fill="white" />
    <circle cx="2" cy="399" r="0.8447639756237976" fill="white" />
    <circle cx="465" cy="292" r="1.0499097317872117" fill="white" />
    <circle cx="748" cy="569" r="1.3604327055359688" fill="white" />
    <circle cx="498" cy="158" r="0.7468672274479282" fill="white" />
    <circle cx="222" cy="59" r="1.252934378061133" fill="white" />
    <circle cx="555" cy="62" r="1.4723682284927833" fill="white" />
    <circle cx="58" cy="51" r="1.2594308727966625" fill="white" />
    <circle cx="514" cy="543" r="0.7046625463213283" fill="white" />
    <circle cx="520" cy="82" r="1.606745308947358" fill="white" />
    <circle cx="70" cy="69" r="1.3777763196853172" fill="white" />
    <circle cx="240" cy="413" r="0.6558525981312615" fill="white" />
    <circle cx="583" cy="252" r="1.2525947747593738" fill="white" />
    <circle cx="40" cy="83" r="1.0449923899366342" fill="white" />
    <circle cx="597" cy="578" r="1.1796175301915466" fill="white" />
    <circle cx="267" cy="209" r="1.3706437672007779" fill="white" />
    <circle cx="321" cy="244" r="0.8452988662907599" fill="white" />
    <circle cx="134" cy="307" r="1.0943919443415875" fill="white" />
    <circle cx="769" cy="74" r="0.5121100939495203" fill="white" />
    <circle cx="636" cy="576" r="1.794925382211623" fill="white" />
    <circle cx="75" cy="550" r="0.7771006059471526" fill="white" />
    <circle cx="271" cy="135" r="1.7132371913918218" fill="white" />
    <circle cx="70" cy="250" r="0.9803852153605492" fill="white" />
    <circle cx="161" cy="448" r="1.5838684410317492" fill="white" />
    <circle cx="720" cy="309" r="1.295181095443735" fill="white" />
    <circle cx="669" cy="541" r="0.5101700392978054" fill="white" />
    <circle cx="567" cy="306" r="1.7112828512669007" fill="white" />
    <circle cx="106" cy="137" r="0.843805697933266" fill="white" />
    <circle cx="109" cy="566" r="0.7020822827074876" fill="white" />
    <circle cx="288" cy="215" r="1.4328958432804373" fill="white" />
    <circle cx="208" cy="270" r="1.1570317755273833" fill="white" />
    <circle cx="257" cy="52" r="0.6199880080265534" fill="white" />
    <circle cx="433" cy="283" r="0.557312790338765" fill="white" />
    <circle cx="341" cy="133" r="1.3282473904917935" fill="white" />
    <circle cx="268" cy="165" r="1.46360018085231" fill="white" />
    <circle cx="564" cy="437" r="1.2291789242071705" fill="white" />
    <circle cx="114" cy="77" r="1.7285662207606307" fill="white" />
    <circle cx="707" cy="152" r="1.209267375967179" fill="white" />
    <circle cx="378" cy="596" r="1.2182826257684969" fill="white" />
    <circle cx="440" cy="130" r="0.5543775156195152" fill="white" />
    <circle cx="373" cy="40" r="1.668602027484417" fill="white" />
    <circle cx="215" cy="255" r="1.367013433826206" fill="white" />
    <circle cx="362" cy="573" r="1.6493751118863116" fill="white" />
    <circle cx="416" cy="158" r="1.7034929693404235" fill="white" />
    <circle cx="242" cy="166" r="1.7690678428102518" fill="white" />
    <circle cx="181" cy="422" r="0.5322222704676454" fill="white" />
    <circle cx="754" cy="340" r="1.5171024449919213" fill="white" />
    <circle cx="421" cy="254" r="0.8468474224728136" fill="white" />
    <circle cx="718" cy="110" r="0.9973042393760146" fill="white" />
    <circle cx="39" cy="481" r="0.7891638328093638" fill="white" />
    <circle cx="471" cy="358" r="0.8967481275401807" fill="white" />
    <circle cx="233" cy="228" r="0.5307637651118869" fill="white" />
    <circle cx="197" cy="408" r="0.9267405365570185" fill="white" />
    <circle cx="71" cy="285" r="0.9564899678075779" fill="white" />
    <circle cx="521" cy="409" r="1.383373553868343" fill="white" />
    <circle cx="549" cy="339" r="1.7210082824221304" fill="white" />
    <circle cx="118" cy="267" r="0.7321381610242027" fill="white" />
    <circle cx="271" cy="39" r="0.6409233113791244" fill="white" />
    <circle cx="444" cy="353" r="1.4471085788485156" fill="white" />
    <circle cx="321" cy="446" r="1.2880715092979864" fill="white" />
    <circle cx="523" cy="118" r="1.0007540633481453" fill="white" />
    <circle cx="590" cy="194" r="0.8311392579801565" fill="white" />
    <circle cx="725" cy="446" r="0.5021986616842183" fill="white" />
    <circle cx="551" cy="201" r="0.9734879133156434" fill="white" />
    <circle cx="71" cy="338" r="1.310102032930332" fill="white" />
    <circle cx="679" cy="127" r="1.4356805419181353" fill="white" />
    <circle cx="307" cy="519" r="0.9020700608712493" fill="white" />
    <circle cx="418" cy="334" r="1.023120503175042" fill="white" />
    <circle cx="302" cy="567" r="0.6654741387768992" fill="white" />
    <circle cx="430" cy="388" r="1.3805133288545528" fill="white" />
    <circle cx="178" cy="582" r="0.891234836935235" fill="white" />
    <circle cx="561" cy="0" r="0.8950374340488599" fill="white" />
    <circle cx="215" cy="440" r="1.5214864757208542" fill="white" />
    <circle cx="621" cy="329" r="1.1044846473211185" fill="white" />
    <circle cx="452" cy="218" r="1.1645261959369633" fill="white" />
    <circle cx="753" cy="173" r="1.3565059684979484" fill="white" />
    <circle cx="290" cy="527" r="1.3630099871964982" fill="white" />
    <circle cx="634" cy="343" r="0.6214033600982315" fill="white" />
    <circle cx="769" cy="240" r="1.3746343717243172" fill="white" />
    <circle cx="230" cy="203" r="0.6915601509195045" fill="white" />
    <circle cx="47" cy="250" r="1.7791168296164068" fill="white" />
    <circle cx="625" cy="74" r="1.0920410188941159" fill="white" />
    <circle cx="644" cy="589" r="0.7527658077616222" fill="white" />
    <circle cx="713" cy="393" r="1.142690319713568" fill="white" />
    <circle cx="249" cy="151" r="1.3528754144453194" fill="white" />
    <circle cx="5" cy="109" r="1.5119465287975227" fill="white" />
    <circle cx="224" cy="180" r="1.545342813025086" fill="white" />
    <circle cx="712" cy="530" r="1.1039148499465279" fill="white" />
    <circle cx="570" cy="255" r="1.6927110187920722" fill="white" />
    <circle cx="124" cy="467" r="0.6733408372241375" fill="white" />
    <circle cx="475" cy="543" r="1.7842601889863825" fill="white" />
    <circle cx="609" cy="324" r="1.7350514909761028" fill="white" />
    <circle cx="453" cy="516" r="1.0547629839162522" fill="white" />
    <circle cx="561" cy="456" r="1.6663705342032409" fill="white" />
    <circle cx="761" cy="486" r="1.0850906844209804" fill="white" />
    <circle cx="769" cy="253" r="1.591821754194497" fill="white" />
    <circle cx="283" cy="533" r="1.129976122191347" fill="white" />
    <circle cx="244" cy="281" r="1.0718343712443734" fill="white" />
  </g>
</svg>